# xmcd CD database file generated by Grip 2.95
# 
# Track frame offsets:
#       150
#       18670
#       37355
#       56547
#       73267
#       90905
#       108530
#       127230
#       144472
#       163440
#       179922
#       196907
#       218192
#       232805
# 
# Disc length: 3342 seconds
# 
# Revision: 3
# Processed by: cddbd v1.4b41PL1 Copyright (c) Steve Scherf et al.
# Submitted via: Grip 2.95
# 
DISCID=dc0d0c0e
DTITLE=Various Artist - Cover Plus and 5
DYEAR=1900
DGENRE=
TTITLE0=All Right Now
TTITLE1=Without You
TTITLE2=What's Up
TTITLE3=Bend Me Shape Me
TTITLE4=Abacadabra
TTITLE5=Automatic Love
TTITLE6=Phantom Of The Opera
TTITLE7=Words
TTITLE8=Love Is All Around
TTITLE9=Loop Of Love
TTITLE10=Major Tom
TTITLE11=Jack and Jill
TTITLE12=The Most Beautiful Girl In The World
TTITLE13=La Cucamarcha
EXTD=
EXTT0=
EXTT1=
EXTT2=
EXTT3=
EXTT4=
EXTT5=
EXTT6=
EXTT7=
EXTT8=
EXTT9=
EXTT10=
EXTT11=
EXTT12=
EXTT13=
PLAYORDER=
